<svg version="1.1" id="Layer_1" xmlns="http://www.w3.org/2000/svg" xmlns:xlink="http://www.w3.org/1999/xlink" x="0px" y="0px"
	 width="100%" viewBox="0 0 880 832" enable-background="new 0 0 880 832" xml:space="preserve">
<path fill="#000000" opacity="1.000000" stroke="none" 
	d="
M780.156372,611.000000 
	C780.146606,653.994385 780.143311,696.488831 780.123291,738.983215 
	C780.116821,752.738464 773.678040,759.217468 759.903931,759.218811 
	C681.077026,759.226379 602.250061,759.215210 523.423157,759.186707 
	C510.839325,759.182190 504.026154,752.073364 504.023132,738.969910 
	C504.011292,687.474304 504.033325,635.978638 504.034698,584.483032 
	C504.034943,576.177002 503.303467,575.440369 494.867584,575.432983 
	C459.203491,575.401855 423.539398,575.382935 387.875305,575.382019 
	C380.737335,575.381836 380.363434,575.870483 380.364532,583.120483 
	C380.367798,604.770813 380.300598,626.421204 380.303467,648.071533 
	C380.307770,680.039124 380.344238,712.006653 380.376404,743.974243 
	C380.388275,755.779297 374.044739,762.360596 362.343781,762.366455 
	C281.365265,762.407043 200.386734,762.414917 119.408211,762.407532 
	C108.428993,762.406555 102.042183,755.956787 101.914124,744.418640 
	C101.740288,728.755310 101.848251,713.088928 101.842552,697.423828 
	C101.807259,600.433350 101.781174,503.442902 101.726044,406.452423 
	C101.721725,398.857697 104.261108,392.817566 111.318428,389.154297 
	C117.688889,385.847565 123.622147,386.859070 129.103806,391.000732 
	C133.681717,394.459534 135.396896,399.325256 135.387695,405.006775 
	C135.333130,438.669189 135.347168,472.331726 135.344727,505.994202 
	C135.339508,577.988708 135.334930,649.983154 135.341187,721.977661 
	C135.341766,728.519226 135.701523,728.879822 142.023880,728.882507 
	C207.519119,728.910583 273.014374,728.932373 338.509613,728.946289 
	C346.536896,728.947998 346.725983,728.797424 346.730438,720.906677 
	C346.759949,668.410461 346.767395,615.914185 346.767120,563.417969 
	C346.767059,548.186707 352.700256,542.038025 367.813843,542.021057 
	C417.643433,541.965088 467.473114,541.948425 517.302734,541.984985 
	C531.824402,541.995605 538.041260,548.233093 538.045959,562.719116 
	C538.062744,614.048523 538.025940,665.377930 537.989014,716.707336 
	C537.982605,725.582458 538.012939,725.674316 546.782654,725.674316 
	C609.777710,725.674683 672.772766,725.669006 735.767822,725.664246 
	C736.934387,725.664185 738.101624,725.674988 739.267395,725.641602 
	C745.520203,725.462585 746.566528,724.483948 746.617004,718.316162 
	C746.687988,709.650635 746.654419,700.984253 746.654419,692.318237 
	C746.654724,604.324585 746.682373,516.330933 746.598938,428.337341 
	C746.591736,420.734100 748.591858,414.582397 755.727966,410.873749 
	C765.019104,406.045105 776.536804,411.017883 779.342773,421.108185 
	C780.110413,423.868622 780.201721,426.687866 780.200562,429.531647 
	C780.176636,489.854431 780.168030,550.177246 780.156372,611.000000 
z"/>
<path fill="#000000" opacity="1.000000" stroke="none" 
	d="
M603.725220,168.252930 
	C648.544373,204.534653 693.097168,240.580887 737.644104,276.634277 
	C769.628967,302.520813 801.606445,328.416443 833.586365,354.309082 
	C838.845398,358.566986 842.119385,363.834869 840.722778,370.814087 
	C839.379761,377.525299 835.230835,382.061737 828.658508,384.278259 
	C822.809631,386.250824 817.755127,384.340607 813.282654,380.783173 
	C799.983215,370.204712 786.795105,359.486115 773.583374,348.797760 
	C715.299377,301.645630 657.024048,254.482834 598.742310,207.328049 
	C558.203308,174.528610 517.664429,141.729004 477.113159,108.944771 
	C465.971405,99.937035 454.709412,91.075966 443.667450,81.948181 
	C440.531860,79.356163 438.268829,79.323219 435.038635,81.878113 
	C390.358154,117.217804 345.596741,152.455215 300.830872,187.686844 
	C261.822540,218.387161 222.775421,249.038147 183.760681,279.730316 
	C146.448746,309.082916 109.139244,338.438690 71.877159,367.854462 
	C67.185234,371.558441 62.396114,374.763000 56.089222,373.982605 
	C48.514931,373.045380 43.612633,368.829163 41.610069,361.431519 
	C39.622948,354.090851 42.397362,348.264343 47.976433,343.750244 
	C57.559971,335.996063 67.352638,328.500671 77.039085,320.873230 
	C118.787918,287.998993 160.514465,255.096405 202.279617,222.242920 
	C234.227783,197.111710 266.237244,172.058441 298.191406,146.934860 
	C340.752808,113.471413 383.309204,80.001526 425.816986,46.470036 
	C436.162140,38.309479 443.140503,38.231277 453.509796,46.626381 
	C503.491333,87.091888 553.473999,127.555946 603.725220,168.252930 
z"/>
</svg>